<?xml version="1.0" standalone="no"?>
<!DOCTYPE svg PUBLIC "-//W3C//DTD SVG 20010904//EN"
 "http://www.w3.org/TR/2001/REC-SVG-20010904/DTD/svg10.dtd">
<svg version="1.0" xmlns="http://www.w3.org/2000/svg"
 width="662.000000pt" height="377.000000pt" viewBox="0 0 662.000000 377.000000"
 preserveAspectRatio="xMidYMid meet">

<g transform="translate(0.000000,377.000000) scale(0.100000,-0.100000)"
fill="#000000" stroke="none">
<path d="M1720 1851 c-100 -303 -115 -338 -160 -354 -8 -3 19 -6 60 -6 67 -1
72 1 50 12 -33 17 -35 47 -7 127 l22 65 100 0 100 0 32 -90 c17 -49 32 -93 32
-97 1 -4 -11 -9 -26 -11 -16 -2 33 -4 107 -4 74 0 122 2 106 6 -29 6 -32 13
-139 334 l-109 327 -33 0 -34 0 -101 -309z m111 12 c23 -71 44 -134 47 -140 3
-10 -20 -13 -93 -13 -74 0 -96 3 -92 13 2 6 21 64 41 127 48 149 45 140 50
140 2 0 23 -57 47 -127z"/>
<path d="M4045 2115 c-51 -50 -16 -125 58 -125 42 0 67 27 67 73 0 35 -40 77
-75 77 -14 0 -37 -11 -50 -25z"/>
<path d="M2836 2048 c-13 -64 -77 -125 -144 -139 -31 -6 -33 -7 -9 -8 l27 -1
0 -147 c0 -124 4 -155 20 -190 26 -59 69 -83 148 -83 57 0 67 3 93 29 16 16
29 40 29 53 -1 20 -4 18 -21 -14 -27 -52 -64 -61 -96 -24 -22 26 -23 33 -23
201 l0 174 38 4 37 4 -37 1 -38 2 0 85 c0 85 -12 112 -24 53z"/>
<path d="M4052 1925 c-71 -11 -116 -30 -57 -23 l30 3 3 -202 2 -202 -32 -4
c-18 -2 26 -4 97 -4 72 0 118 2 103 4 l-28 4 0 220 0 219 -22 -1 c-13 -1 -56
-7 -96 -14z"/>
<path d="M2292 1915 c-41 -7 -77 -17 -80 -21 -4 -4 5 -4 21 -2 l27 5 0 -198 0
-198 -27 -4 c-16 -2 31 -4 102 -4 72 0 118 2 103 4 l-28 4 0 155 c0 166 7 197
52 228 31 22 55 22 34 0 -24 -23 -20 -70 6 -88 49 -34 108 -7 108 49 0 18 -7
41 -16 49 -37 37 -111 32 -156 -11 l-28 -27 0 37 c0 43 -1 43 -118 22z"/>
<path d="M3596 1914 c-38 -7 -71 -16 -75 -20 -3 -4 6 -4 22 -2 l27 5 0 -198 0
-198 -27 -4 c-16 -2 31 -4 102 -4 72 0 117 2 102 4 l-28 4 3 171 3 170 33 29
c18 16 40 29 50 29 16 -1 16 -1 0 -11 -27 -15 -24 -74 4 -93 49 -34 108 -7
108 49 0 76 -107 101 -171 39 l-29 -28 0 37 c0 34 -2 37 -27 36 -16 0 -59 -7
-97 -15z"/>
<path d="M3160 1899 c-56 -25 -77 -44 -101 -91 -58 -113 -16 -253 92 -308 50
-26 149 -27 204 -1 82 37 120 110 113 221 -5 88 -36 137 -109 174 -65 32 -135
34 -199 5z m148 -27 c22 -33 24 -290 3 -340 -27 -65 -102 -53 -122 20 -16 61
-8 300 11 323 33 39 81 38 108 -3z"/>
<path d="M4396 1910 c-41 -13 -66 -39 -66 -70 0 -34 17 -50 52 -50 36 0 59 40
40 71 -21 33 -14 39 43 39 50 0 56 -2 65 -26 6 -14 10 -47 10 -73 l0 -48 -83
-5 c-96 -6 -139 -25 -167 -71 -38 -62 -16 -152 45 -181 46 -22 122 -20 168 4
l38 21 26 -21 c43 -34 159 -25 185 14 17 25 7 37 -11 15 -16 -20 -23 -22 -38
-13 -16 10 -19 31 -23 171 -5 173 -8 181 -64 210 -35 18 -178 27 -220 13z
m142 -277 l-3 -98 -37 -20 c-36 -19 -37 -19 -57 -1 -29 27 -30 136 -1 184 17
28 25 32 60 32 l41 0 -3 -97z"/>
<path d="M4891 1898 c-96 -48 -106 -185 -16 -244 13 -9 55 -20 92 -24 51 -7
72 -14 85 -30 25 -30 22 -56 -7 -85 -54 -55 -159 -21 -202 64 -12 24 -25 46
-28 49 -3 3 -5 -30 -5 -74 1 -77 1 -78 18 -58 18 21 19 21 53 3 48 -26 144
-25 187 1 54 33 74 75 70 147 -3 49 -9 68 -28 88 -27 29 -76 45 -137 45 -30 0
-49 6 -63 20 -23 23 -24 33 -9 63 17 31 28 37 79 37 52 0 83 -18 111 -64 l19
-31 0 59 c0 56 -1 58 -17 43 -16 -13 -21 -14 -43 -2 -38 21 -109 18 -159 -7z"/>
</g>
</svg>
